<mxfile host="app.diagrams.net" modified="2023-03-31T11:09:12.278Z" agent="Mozilla/5.0 (Windows NT 10.0; Win64; x64) AppleWebKit/537.36 (KHTML, like Gecko) Chrome/111.0.0.0 Safari/537.36" etag="241WVP2A8YJnGzrs9k0A" version="21.1.2" type="github">
  <diagram name="‫صفحه - 1‬" id="PZjCcUSYlcAa3TXQzlep">
    <mxGraphModel dx="1862" dy="1750" grid="1" gridSize="10" guides="1" tooltips="1" connect="1" arrows="1" fold="1" page="1" pageScale="1" pageWidth="827" pageHeight="1169" math="0" shadow="0">
      <root>
        <mxCell id="0" />
        <mxCell id="1" parent="0" />
        <mxCell id="0gLTv36TYnF1vi7v7U-2-1" value="شعبه" style="rounded=1;arcSize=10;whiteSpace=wrap;html=1;align=center;fillColor=#FFCCE6;" vertex="1" parent="1">
          <mxGeometry x="360" y="240" width="100" height="40" as="geometry" />
        </mxCell>
        <mxCell id="0gLTv36TYnF1vi7v7U-2-2" value="نام" style="ellipse;whiteSpace=wrap;html=1;align=center;fillColor=#FFCCE6;" vertex="1" parent="1">
          <mxGeometry x="230" y="180" width="100" height="40" as="geometry" />
        </mxCell>
        <mxCell id="0gLTv36TYnF1vi7v7U-2-3" value="ظرفیت" style="ellipse;whiteSpace=wrap;html=1;align=center;fillColor=#FFCCE6;" vertex="1" parent="1">
          <mxGeometry x="480" y="210" width="100" height="40" as="geometry" />
        </mxCell>
        <mxCell id="0gLTv36TYnF1vi7v7U-2-4" value="آدرس" style="ellipse;whiteSpace=wrap;html=1;align=center;fillColor=#FFCCE6;" vertex="1" parent="1">
          <mxGeometry x="400" y="160" width="100" height="40" as="geometry" />
        </mxCell>
        <mxCell id="0gLTv36TYnF1vi7v7U-2-5" value="شماره" style="ellipse;whiteSpace=wrap;html=1;align=center;fontStyle=4;fillColor=#FFCCE6;" vertex="1" parent="1">
          <mxGeometry x="300" y="160" width="100" height="40" as="geometry" />
        </mxCell>
        <mxCell id="0gLTv36TYnF1vi7v7U-2-6" value="" style="endArrow=none;html=1;rounded=0;exitX=1;exitY=1;exitDx=0;exitDy=0;entryX=0;entryY=0;entryDx=0;entryDy=0;fillColor=#FFCCE6;" edge="1" parent="1" source="0gLTv36TYnF1vi7v7U-2-2" target="0gLTv36TYnF1vi7v7U-2-1">
          <mxGeometry relative="1" as="geometry">
            <mxPoint x="330" y="260" as="sourcePoint" />
            <mxPoint x="490" y="260" as="targetPoint" />
          </mxGeometry>
        </mxCell>
        <mxCell id="0gLTv36TYnF1vi7v7U-2-7" value="" style="endArrow=none;html=1;rounded=0;exitX=0.78;exitY=0.9;exitDx=0;exitDy=0;exitPerimeter=0;entryX=0.25;entryY=0;entryDx=0;entryDy=0;fillColor=#FFCCE6;" edge="1" parent="1" source="0gLTv36TYnF1vi7v7U-2-5" target="0gLTv36TYnF1vi7v7U-2-1">
          <mxGeometry relative="1" as="geometry">
            <mxPoint x="330" y="330" as="sourcePoint" />
            <mxPoint x="490" y="330" as="targetPoint" />
          </mxGeometry>
        </mxCell>
        <mxCell id="0gLTv36TYnF1vi7v7U-2-8" value="" style="endArrow=none;html=1;rounded=0;exitX=0.41;exitY=1.025;exitDx=0;exitDy=0;exitPerimeter=0;entryX=0.75;entryY=0;entryDx=0;entryDy=0;fillColor=#FFCCE6;" edge="1" parent="1" source="0gLTv36TYnF1vi7v7U-2-4" target="0gLTv36TYnF1vi7v7U-2-1">
          <mxGeometry relative="1" as="geometry">
            <mxPoint x="330" y="330" as="sourcePoint" />
            <mxPoint x="490" y="330" as="targetPoint" />
          </mxGeometry>
        </mxCell>
        <mxCell id="0gLTv36TYnF1vi7v7U-2-9" value="" style="endArrow=none;html=1;rounded=0;exitX=0;exitY=1;exitDx=0;exitDy=0;entryX=1;entryY=0.5;entryDx=0;entryDy=0;fillColor=#FFCCE6;" edge="1" parent="1" source="0gLTv36TYnF1vi7v7U-2-3" target="0gLTv36TYnF1vi7v7U-2-1">
          <mxGeometry relative="1" as="geometry">
            <mxPoint x="330" y="330" as="sourcePoint" />
            <mxPoint x="490" y="330" as="targetPoint" />
          </mxGeometry>
        </mxCell>
        <mxCell id="0gLTv36TYnF1vi7v7U-2-10" value="غذا" style="whiteSpace=wrap;html=1;align=center;fillColor=#FFCCE6;" vertex="1" parent="1">
          <mxGeometry x="580" y="340" width="100" height="40" as="geometry" />
        </mxCell>
        <mxCell id="0gLTv36TYnF1vi7v7U-2-11" value="دسته" style="ellipse;whiteSpace=wrap;html=1;align=center;fillColor=#FFCCE6;" vertex="1" parent="1">
          <mxGeometry x="450" y="310" width="100" height="40" as="geometry" />
        </mxCell>
        <mxCell id="0gLTv36TYnF1vi7v7U-2-12" value="" style="endArrow=none;html=1;rounded=0;exitX=1;exitY=0.5;exitDx=0;exitDy=0;fillColor=#FFCCE6;" edge="1" parent="1" source="0gLTv36TYnF1vi7v7U-2-11" target="0gLTv36TYnF1vi7v7U-2-10">
          <mxGeometry relative="1" as="geometry">
            <mxPoint x="330" y="330" as="sourcePoint" />
            <mxPoint x="490" y="330" as="targetPoint" />
          </mxGeometry>
        </mxCell>
        <mxCell id="0gLTv36TYnF1vi7v7U-2-14" value="ماده اولیه" style="whiteSpace=wrap;html=1;align=center;fillColor=#FFCCE6;" vertex="1" parent="1">
          <mxGeometry x="580" y="480" width="100" height="40" as="geometry" />
        </mxCell>
        <mxCell id="0gLTv36TYnF1vi7v7U-2-15" value="دارد" style="shape=rhombus;perimeter=rhombusPerimeter;whiteSpace=wrap;html=1;align=center;fillColor=#FFCCE6;" vertex="1" parent="1">
          <mxGeometry x="570" y="400" width="120" height="60" as="geometry" />
        </mxCell>
        <mxCell id="0gLTv36TYnF1vi7v7U-2-17" value="" style="shape=link;html=1;rounded=0;exitX=0.5;exitY=0;exitDx=0;exitDy=0;entryX=0.5;entryY=1;entryDx=0;entryDy=0;fillColor=#FFCCE6;" edge="1" parent="1" source="0gLTv36TYnF1vi7v7U-2-14" target="0gLTv36TYnF1vi7v7U-2-15">
          <mxGeometry relative="1" as="geometry">
            <mxPoint x="330" y="330" as="sourcePoint" />
            <mxPoint x="490" y="330" as="targetPoint" />
          </mxGeometry>
        </mxCell>
        <mxCell id="0gLTv36TYnF1vi7v7U-2-18" value="1" style="resizable=0;html=1;whiteSpace=wrap;align=right;verticalAlign=bottom;fillColor=#FFCCE6;" connectable="0" vertex="1" parent="0gLTv36TYnF1vi7v7U-2-17">
          <mxGeometry x="1" relative="1" as="geometry" />
        </mxCell>
        <mxCell id="0gLTv36TYnF1vi7v7U-2-21" value="" style="shape=link;html=1;rounded=0;exitX=0.5;exitY=1;exitDx=0;exitDy=0;entryX=0.5;entryY=0;entryDx=0;entryDy=0;fillColor=#FFCCE6;" edge="1" parent="1" source="0gLTv36TYnF1vi7v7U-2-10" target="0gLTv36TYnF1vi7v7U-2-15">
          <mxGeometry relative="1" as="geometry">
            <mxPoint x="330" y="330" as="sourcePoint" />
            <mxPoint x="490" y="330" as="targetPoint" />
          </mxGeometry>
        </mxCell>
        <mxCell id="0gLTv36TYnF1vi7v7U-2-22" value="1" style="resizable=0;html=1;whiteSpace=wrap;align=right;verticalAlign=bottom;fillColor=#FFCCE6;" connectable="0" vertex="1" parent="0gLTv36TYnF1vi7v7U-2-21">
          <mxGeometry x="1" relative="1" as="geometry" />
        </mxCell>
        <mxCell id="0gLTv36TYnF1vi7v7U-2-23" value="مقدار" style="ellipse;whiteSpace=wrap;html=1;align=center;fillColor=#FFCCE6;" vertex="1" parent="1">
          <mxGeometry x="727" y="410" width="100" height="40" as="geometry" />
        </mxCell>
        <mxCell id="0gLTv36TYnF1vi7v7U-2-24" value="" style="endArrow=none;html=1;rounded=0;exitX=1;exitY=0.5;exitDx=0;exitDy=0;entryX=0;entryY=0.5;entryDx=0;entryDy=0;fillColor=#FFCCE6;" edge="1" parent="1" source="0gLTv36TYnF1vi7v7U-2-15" target="0gLTv36TYnF1vi7v7U-2-23">
          <mxGeometry relative="1" as="geometry">
            <mxPoint x="460" y="320" as="sourcePoint" />
            <mxPoint x="620" y="320" as="targetPoint" />
          </mxGeometry>
        </mxCell>
        <mxCell id="0gLTv36TYnF1vi7v7U-2-25" value="سقارش" style="shape=rhombus;perimeter=rhombusPerimeter;whiteSpace=wrap;html=1;align=center;fillColor=#FFCCE6;" vertex="1" parent="1">
          <mxGeometry x="350" y="460" width="120" height="60" as="geometry" />
        </mxCell>
        <mxCell id="0gLTv36TYnF1vi7v7U-2-26" value="" style="endArrow=none;html=1;rounded=0;exitX=0.5;exitY=1;exitDx=0;exitDy=0;entryX=0.5;entryY=0;entryDx=0;entryDy=0;fillColor=#FFCCE6;" edge="1" parent="1" source="0gLTv36TYnF1vi7v7U-2-1" target="0gLTv36TYnF1vi7v7U-2-25">
          <mxGeometry relative="1" as="geometry">
            <mxPoint x="460" y="320" as="sourcePoint" />
            <mxPoint x="620" y="320" as="targetPoint" />
          </mxGeometry>
        </mxCell>
        <mxCell id="0gLTv36TYnF1vi7v7U-2-27" value="" style="endArrow=none;html=1;rounded=0;exitX=1;exitY=0.5;exitDx=0;exitDy=0;fillColor=#FFCCE6;" edge="1" parent="1" source="0gLTv36TYnF1vi7v7U-2-25">
          <mxGeometry relative="1" as="geometry">
            <mxPoint x="460" y="320" as="sourcePoint" />
            <mxPoint x="580" y="490" as="targetPoint" />
          </mxGeometry>
        </mxCell>
        <mxCell id="0gLTv36TYnF1vi7v7U-2-28" value="لغو یا تحویل" style="ellipse;whiteSpace=wrap;html=1;align=center;fillColor=#FFCCE6;" vertex="1" parent="1">
          <mxGeometry x="280" y="530" width="100" height="40" as="geometry" />
        </mxCell>
        <mxCell id="0gLTv36TYnF1vi7v7U-2-29" value="زمان تحویل" style="ellipse;whiteSpace=wrap;html=1;align=center;fillColor=#FFCCE6;" vertex="1" parent="1">
          <mxGeometry x="290" y="410" width="100" height="40" as="geometry" />
        </mxCell>
        <mxCell id="0gLTv36TYnF1vi7v7U-2-30" value="مقدار تحویل" style="ellipse;whiteSpace=wrap;html=1;align=center;fillColor=#FFCCE6;" vertex="1" parent="1">
          <mxGeometry x="230" y="490" width="100" height="40" as="geometry" />
        </mxCell>
        <mxCell id="0gLTv36TYnF1vi7v7U-2-31" value="مقدار سفارش" style="ellipse;whiteSpace=wrap;html=1;align=center;fillColor=#FFCCE6;" vertex="1" parent="1">
          <mxGeometry x="230" y="450" width="100" height="40" as="geometry" />
        </mxCell>
        <mxCell id="0gLTv36TYnF1vi7v7U-2-32" value="" style="endArrow=none;html=1;rounded=0;entryX=0;entryY=0;entryDx=0;entryDy=0;fillColor=#FFCCE6;" edge="1" parent="1" target="0gLTv36TYnF1vi7v7U-2-25">
          <mxGeometry relative="1" as="geometry">
            <mxPoint x="360" y="450" as="sourcePoint" />
            <mxPoint x="610" y="390" as="targetPoint" />
          </mxGeometry>
        </mxCell>
        <mxCell id="0gLTv36TYnF1vi7v7U-2-33" value="" style="endArrow=none;html=1;rounded=0;exitX=1;exitY=0.5;exitDx=0;exitDy=0;entryX=0;entryY=0.5;entryDx=0;entryDy=0;fillColor=#FFCCE6;" edge="1" parent="1" source="0gLTv36TYnF1vi7v7U-2-31" target="0gLTv36TYnF1vi7v7U-2-25">
          <mxGeometry relative="1" as="geometry">
            <mxPoint x="450" y="390" as="sourcePoint" />
            <mxPoint x="610" y="390" as="targetPoint" />
          </mxGeometry>
        </mxCell>
        <mxCell id="0gLTv36TYnF1vi7v7U-2-34" value="" style="endArrow=none;html=1;rounded=0;exitX=1;exitY=0.5;exitDx=0;exitDy=0;entryX=0;entryY=0.5;entryDx=0;entryDy=0;fillColor=#FFCCE6;" edge="1" parent="1" source="0gLTv36TYnF1vi7v7U-2-30" target="0gLTv36TYnF1vi7v7U-2-25">
          <mxGeometry relative="1" as="geometry">
            <mxPoint x="450" y="390" as="sourcePoint" />
            <mxPoint x="610" y="390" as="targetPoint" />
          </mxGeometry>
        </mxCell>
        <mxCell id="0gLTv36TYnF1vi7v7U-2-35" value="" style="endArrow=none;html=1;rounded=0;exitX=1;exitY=0;exitDx=0;exitDy=0;entryX=0;entryY=1;entryDx=0;entryDy=0;fillColor=#FFCCE6;" edge="1" parent="1" source="0gLTv36TYnF1vi7v7U-2-28" target="0gLTv36TYnF1vi7v7U-2-25">
          <mxGeometry relative="1" as="geometry">
            <mxPoint x="450" y="390" as="sourcePoint" />
            <mxPoint x="610" y="390" as="targetPoint" />
          </mxGeometry>
        </mxCell>
        <mxCell id="0gLTv36TYnF1vi7v7U-2-36" value="قیمت" style="ellipse;whiteSpace=wrap;html=1;align=center;fillColor=#FFCCE6;" vertex="1" parent="1">
          <mxGeometry x="560" y="270" width="100" height="40" as="geometry" />
        </mxCell>
        <mxCell id="0gLTv36TYnF1vi7v7U-2-37" value="نام" style="ellipse;whiteSpace=wrap;html=1;align=center;fontStyle=4;fillColor=#FFCCE6;" vertex="1" parent="1">
          <mxGeometry x="680" y="270" width="100" height="40" as="geometry" />
        </mxCell>
        <mxCell id="0gLTv36TYnF1vi7v7U-2-38" value="" style="endArrow=none;html=1;rounded=0;exitX=0.5;exitY=1;exitDx=0;exitDy=0;fillColor=#FFCCE6;" edge="1" parent="1" source="0gLTv36TYnF1vi7v7U-2-36">
          <mxGeometry relative="1" as="geometry">
            <mxPoint x="450" y="390" as="sourcePoint" />
            <mxPoint x="620" y="340" as="targetPoint" />
          </mxGeometry>
        </mxCell>
        <mxCell id="0gLTv36TYnF1vi7v7U-2-39" value="" style="endArrow=none;html=1;rounded=0;exitX=0;exitY=1;exitDx=0;exitDy=0;fillColor=#FFCCE6;" edge="1" parent="1" source="0gLTv36TYnF1vi7v7U-2-37">
          <mxGeometry relative="1" as="geometry">
            <mxPoint x="450" y="390" as="sourcePoint" />
            <mxPoint x="650" y="340" as="targetPoint" />
          </mxGeometry>
        </mxCell>
        <mxCell id="0gLTv36TYnF1vi7v7U-2-40" value="مشتری" style="whiteSpace=wrap;html=1;align=center;fillColor=#FFCCE6;" vertex="1" parent="1">
          <mxGeometry x="850" y="340" width="100" height="40" as="geometry" />
        </mxCell>
        <mxCell id="0gLTv36TYnF1vi7v7U-2-41" value="سفارش" style="shape=rhombus;perimeter=rhombusPerimeter;whiteSpace=wrap;html=1;align=center;fillColor=#FFCCE6;" vertex="1" parent="1">
          <mxGeometry x="707" y="330" width="120" height="60" as="geometry" />
        </mxCell>
        <mxCell id="0gLTv36TYnF1vi7v7U-2-42" value="" style="endArrow=none;html=1;rounded=0;exitX=1;exitY=0.5;exitDx=0;exitDy=0;fillColor=#FFCCE6;" edge="1" parent="1" source="0gLTv36TYnF1vi7v7U-2-10" target="0gLTv36TYnF1vi7v7U-2-41">
          <mxGeometry relative="1" as="geometry">
            <mxPoint x="450" y="390" as="sourcePoint" />
            <mxPoint x="610" y="390" as="targetPoint" />
          </mxGeometry>
        </mxCell>
        <mxCell id="0gLTv36TYnF1vi7v7U-2-43" value="" style="endArrow=none;html=1;rounded=0;entryX=0;entryY=0.5;entryDx=0;entryDy=0;fillColor=#FFCCE6;" edge="1" parent="1" target="0gLTv36TYnF1vi7v7U-2-40">
          <mxGeometry relative="1" as="geometry">
            <mxPoint x="830" y="360" as="sourcePoint" />
            <mxPoint x="610" y="390" as="targetPoint" />
          </mxGeometry>
        </mxCell>
        <mxCell id="0gLTv36TYnF1vi7v7U-2-44" value="اارزیابی رستوران" style="shape=rhombus;perimeter=rhombusPerimeter;whiteSpace=wrap;html=1;align=center;fillColor=#FFCCE6;" vertex="1" parent="1">
          <mxGeometry x="840" y="230" width="120" height="60" as="geometry" />
        </mxCell>
        <mxCell id="0gLTv36TYnF1vi7v7U-2-45" value="" style="endArrow=none;html=1;rounded=0;exitX=1;exitY=0.5;exitDx=0;exitDy=0;entryX=0;entryY=0.5;entryDx=0;entryDy=0;fillColor=#FFCCE6;" edge="1" parent="1" source="0gLTv36TYnF1vi7v7U-2-1" target="0gLTv36TYnF1vi7v7U-2-44">
          <mxGeometry relative="1" as="geometry">
            <mxPoint x="450" y="390" as="sourcePoint" />
            <mxPoint x="610" y="390" as="targetPoint" />
          </mxGeometry>
        </mxCell>
        <mxCell id="0gLTv36TYnF1vi7v7U-2-46" value="" style="endArrow=none;html=1;rounded=0;exitX=0.5;exitY=1;exitDx=0;exitDy=0;entryX=0.5;entryY=0;entryDx=0;entryDy=0;fillColor=#FFCCE6;" edge="1" parent="1" source="0gLTv36TYnF1vi7v7U-2-44" target="0gLTv36TYnF1vi7v7U-2-40">
          <mxGeometry relative="1" as="geometry">
            <mxPoint x="450" y="390" as="sourcePoint" />
            <mxPoint x="610" y="390" as="targetPoint" />
          </mxGeometry>
        </mxCell>
        <mxCell id="0gLTv36TYnF1vi7v7U-2-47" value="نمره" style="ellipse;whiteSpace=wrap;html=1;align=center;fillColor=#FFCCE6;" vertex="1" parent="1">
          <mxGeometry x="850" y="160" width="100" height="40" as="geometry" />
        </mxCell>
        <mxCell id="0gLTv36TYnF1vi7v7U-2-48" value="" style="endArrow=none;html=1;rounded=0;exitX=0.5;exitY=1;exitDx=0;exitDy=0;entryX=0.5;entryY=0;entryDx=0;entryDy=0;fillColor=#FFCCE6;" edge="1" parent="1" source="0gLTv36TYnF1vi7v7U-2-47" target="0gLTv36TYnF1vi7v7U-2-44">
          <mxGeometry relative="1" as="geometry">
            <mxPoint x="450" y="390" as="sourcePoint" />
            <mxPoint x="610" y="390" as="targetPoint" />
          </mxGeometry>
        </mxCell>
        <mxCell id="0gLTv36TYnF1vi7v7U-2-49" value="سازمان" style="whiteSpace=wrap;html=1;align=center;fillColor=#FFCCE6;" vertex="1" parent="1">
          <mxGeometry x="60" y="340" width="100" height="40" as="geometry" />
        </mxCell>
        <mxCell id="0gLTv36TYnF1vi7v7U-2-50" value="قرارداد" style="shape=rhombus;perimeter=rhombusPerimeter;whiteSpace=wrap;html=1;align=center;fillColor=#FFCCE6;" vertex="1" parent="1">
          <mxGeometry x="240" y="330" width="120" height="60" as="geometry" />
        </mxCell>
        <mxCell id="0gLTv36TYnF1vi7v7U-2-51" value="" style="endArrow=none;html=1;rounded=0;exitX=1;exitY=0.5;exitDx=0;exitDy=0;entryX=0;entryY=0.5;entryDx=0;entryDy=0;fillColor=#FFCCE6;" edge="1" parent="1" source="0gLTv36TYnF1vi7v7U-2-49" target="0gLTv36TYnF1vi7v7U-2-50">
          <mxGeometry relative="1" as="geometry">
            <mxPoint x="290" y="290" as="sourcePoint" />
            <mxPoint x="450" y="290" as="targetPoint" />
          </mxGeometry>
        </mxCell>
        <mxCell id="0gLTv36TYnF1vi7v7U-2-52" value="" style="endArrow=none;html=1;rounded=0;exitX=1;exitY=0.5;exitDx=0;exitDy=0;entryX=0;entryY=0.5;entryDx=0;entryDy=0;fillColor=#FFCCE6;" edge="1" parent="1" source="0gLTv36TYnF1vi7v7U-2-50" target="0gLTv36TYnF1vi7v7U-2-10">
          <mxGeometry relative="1" as="geometry">
            <mxPoint x="290" y="290" as="sourcePoint" />
            <mxPoint x="450" y="290" as="targetPoint" />
          </mxGeometry>
        </mxCell>
        <mxCell id="0gLTv36TYnF1vi7v7U-2-53" value="" style="endArrow=none;html=1;rounded=0;exitX=0.5;exitY=0;exitDx=0;exitDy=0;entryX=0.25;entryY=1;entryDx=0;entryDy=0;fillColor=#FFCCE6;" edge="1" parent="1" source="0gLTv36TYnF1vi7v7U-2-50" target="0gLTv36TYnF1vi7v7U-2-1">
          <mxGeometry relative="1" as="geometry">
            <mxPoint x="290" y="290" as="sourcePoint" />
            <mxPoint x="450" y="290" as="targetPoint" />
          </mxGeometry>
        </mxCell>
        <mxCell id="0gLTv36TYnF1vi7v7U-2-54" value="" style="endArrow=none;html=1;rounded=0;entryX=0.5;entryY=0;entryDx=0;entryDy=0;fillColor=#FFCCE6;" edge="1" parent="1" target="0gLTv36TYnF1vi7v7U-2-41">
          <mxGeometry relative="1" as="geometry">
            <mxPoint x="460" y="260" as="sourcePoint" />
            <mxPoint x="640" y="290" as="targetPoint" />
          </mxGeometry>
        </mxCell>
        <mxCell id="0gLTv36TYnF1vi7v7U-2-55" value="تاریخ" style="ellipse;whiteSpace=wrap;html=1;align=center;fillColor=#FFCCE6;" vertex="1" parent="1">
          <mxGeometry x="150" y="390" width="100" height="40" as="geometry" />
        </mxCell>
        <mxCell id="0gLTv36TYnF1vi7v7U-2-56" value="تعداد" style="ellipse;whiteSpace=wrap;html=1;align=center;fillColor=#FFCCE6;" vertex="1" parent="1">
          <mxGeometry x="150" y="290" width="100" height="40" as="geometry" />
        </mxCell>
        <mxCell id="0gLTv36TYnF1vi7v7U-2-57" value="" style="endArrow=none;html=1;rounded=0;exitX=1;exitY=0;exitDx=0;exitDy=0;entryX=1;entryY=1;entryDx=0;entryDy=0;fillColor=#FFCCE6;" edge="1" parent="1" source="0gLTv36TYnF1vi7v7U-2-55" target="0gLTv36TYnF1vi7v7U-2-56">
          <mxGeometry relative="1" as="geometry">
            <mxPoint x="420" y="420" as="sourcePoint" />
            <mxPoint x="270" y="310" as="targetPoint" />
            <Array as="points">
              <mxPoint x="240" y="360" />
            </Array>
          </mxGeometry>
        </mxCell>
        <mxCell id="0gLTv36TYnF1vi7v7U-2-58" value="هزینه" style="whiteSpace=wrap;html=1;align=center;fillColor=#FFCCE6;" vertex="1" parent="1">
          <mxGeometry x="580" y="110" width="100" height="40" as="geometry" />
        </mxCell>
        <mxCell id="0gLTv36TYnF1vi7v7U-2-60" value="نوع" style="ellipse;whiteSpace=wrap;html=1;align=center;fontStyle=4;fillColor=#FFCCE6;" vertex="1" parent="1">
          <mxGeometry x="420" y="100" width="100" height="40" as="geometry" />
        </mxCell>
        <mxCell id="0gLTv36TYnF1vi7v7U-2-61" value="تاریخ" style="ellipse;whiteSpace=wrap;html=1;align=center;fontStyle=4;fillColor=#FFCCE6;" vertex="1" parent="1">
          <mxGeometry x="320" y="100" width="100" height="40" as="geometry" />
        </mxCell>
        <mxCell id="0gLTv36TYnF1vi7v7U-2-62" value="مقدار" style="ellipse;whiteSpace=wrap;html=1;align=center;fillColor=#FFCCE6;" vertex="1" parent="1">
          <mxGeometry x="510" y="40" width="100" height="40" as="geometry" />
        </mxCell>
        <mxCell id="0gLTv36TYnF1vi7v7U-2-63" value="" style="endArrow=none;html=1;rounded=0;exitX=1;exitY=0.5;exitDx=0;exitDy=0;entryX=0;entryY=0.5;entryDx=0;entryDy=0;fillColor=#FFCCE6;" edge="1" parent="1" source="0gLTv36TYnF1vi7v7U-2-60" target="0gLTv36TYnF1vi7v7U-2-58">
          <mxGeometry relative="1" as="geometry">
            <mxPoint x="420" y="260" as="sourcePoint" />
            <mxPoint x="580" y="260" as="targetPoint" />
          </mxGeometry>
        </mxCell>
        <mxCell id="0gLTv36TYnF1vi7v7U-2-64" value="" style="endArrow=none;html=1;rounded=0;exitX=0.67;exitY=0.975;exitDx=0;exitDy=0;exitPerimeter=0;entryX=0.5;entryY=0;entryDx=0;entryDy=0;fillColor=#FFCCE6;" edge="1" parent="1" source="0gLTv36TYnF1vi7v7U-2-62" target="0gLTv36TYnF1vi7v7U-2-58">
          <mxGeometry relative="1" as="geometry">
            <mxPoint x="420" y="260" as="sourcePoint" />
            <mxPoint x="580" y="260" as="targetPoint" />
          </mxGeometry>
        </mxCell>
        <mxCell id="0gLTv36TYnF1vi7v7U-2-65" value="" style="endArrow=none;html=1;rounded=0;fillColor=#FFCCE6;" edge="1" parent="1">
          <mxGeometry relative="1" as="geometry">
            <mxPoint x="310" y="140" as="sourcePoint" />
            <mxPoint x="530" y="140" as="targetPoint" />
          </mxGeometry>
        </mxCell>
        <mxCell id="0gLTv36TYnF1vi7v7U-2-66" value="" style="endArrow=none;html=1;rounded=0;exitX=1;exitY=0;exitDx=0;exitDy=0;fillColor=#FFCCE6;" edge="1" parent="1" source="0gLTv36TYnF1vi7v7U-2-1">
          <mxGeometry relative="1" as="geometry">
            <mxPoint x="420" y="260" as="sourcePoint" />
            <mxPoint x="522.608695652174" y="193.0434782608695" as="targetPoint" />
          </mxGeometry>
        </mxCell>
        <mxCell id="0gLTv36TYnF1vi7v7U-2-68" value="" style="endArrow=none;html=1;rounded=0;exitX=1;exitY=0;exitDx=0;exitDy=0;entryX=0.25;entryY=1;entryDx=0;entryDy=0;fillColor=#FFCCE6;" edge="1" parent="1" target="0gLTv36TYnF1vi7v7U-2-58">
          <mxGeometry relative="1" as="geometry">
            <mxPoint x="565" y="170" as="sourcePoint" />
            <mxPoint x="580" y="260" as="targetPoint" />
          </mxGeometry>
        </mxCell>
        <mxCell id="0gLTv36TYnF1vi7v7U-2-69" value="تتاریخ تسفیه توسط شرکت" style="ellipse;whiteSpace=wrap;html=1;align=center;fillColor=#FFCCE6;" vertex="1" parent="1">
          <mxGeometry x="680" y="40" width="100" height="40" as="geometry" />
        </mxCell>
        <mxCell id="0gLTv36TYnF1vi7v7U-2-70" value="" style="endArrow=none;html=1;rounded=0;exitX=0.75;exitY=0;exitDx=0;exitDy=0;entryX=0;entryY=1;entryDx=0;entryDy=0;fillColor=#FFCCE6;" edge="1" parent="1" source="0gLTv36TYnF1vi7v7U-2-58" target="0gLTv36TYnF1vi7v7U-2-69">
          <mxGeometry relative="1" as="geometry">
            <mxPoint x="420" y="250" as="sourcePoint" />
            <mxPoint x="580" y="250" as="targetPoint" />
          </mxGeometry>
        </mxCell>
        <mxCell id="0gLTv36TYnF1vi7v7U-2-71" value="هزینه" style="shape=ext;margin=3;double=1;whiteSpace=wrap;html=1;align=center;fillColor=#FFCCE6;" vertex="1" parent="1">
          <mxGeometry x="580" y="110" width="100" height="40" as="geometry" />
        </mxCell>
        <mxCell id="0gLTv36TYnF1vi7v7U-2-72" value="" style="shape=link;html=1;rounded=0;exitX=1;exitY=0;exitDx=0;exitDy=0;entryX=0.25;entryY=1;entryDx=0;entryDy=0;fillColor=#FFCCE6;" edge="1" parent="1" target="0gLTv36TYnF1vi7v7U-2-71">
          <mxGeometry relative="1" as="geometry">
            <mxPoint x="565" y="170" as="sourcePoint" />
            <mxPoint x="580" y="250" as="targetPoint" />
          </mxGeometry>
        </mxCell>
        <mxCell id="0gLTv36TYnF1vi7v7U-2-75" value="دارد" style="shape=rhombus;double=1;perimeter=rhombusPerimeter;whiteSpace=wrap;html=1;align=center;fillColor=#FFCCE6;" vertex="1" parent="1">
          <mxGeometry x="490" y="155" width="100" height="50" as="geometry" />
        </mxCell>
        <mxCell id="0gLTv36TYnF1vi7v7U-2-76" value="کارمند" style="rounded=1;arcSize=10;whiteSpace=wrap;html=1;align=center;fillColor=#FFCCE6;" vertex="1" parent="1">
          <mxGeometry x="70" y="110" width="100" height="40" as="geometry" />
        </mxCell>
        <mxCell id="0gLTv36TYnF1vi7v7U-2-77" value="نام و نام خانوادگی" style="ellipse;whiteSpace=wrap;html=1;align=center;fillColor=#FFCCE6;" vertex="1" parent="1">
          <mxGeometry x="180" y="20" width="100" height="40" as="geometry" />
        </mxCell>
        <mxCell id="0gLTv36TYnF1vi7v7U-2-78" value="شماره کارمندی" style="ellipse;whiteSpace=wrap;html=1;align=center;fontStyle=4;fillColor=#FFCCE6;" vertex="1" parent="1">
          <mxGeometry x="70" y="20" width="100" height="40" as="geometry" />
        </mxCell>
        <mxCell id="0gLTv36TYnF1vi7v7U-2-79" value="شغل" style="ellipse;whiteSpace=wrap;html=1;align=center;fillColor=#FFCCE6;" vertex="1" parent="1">
          <mxGeometry x="-60" y="90" width="100" height="40" as="geometry" />
        </mxCell>
        <mxCell id="0gLTv36TYnF1vi7v7U-2-80" value="ساعت کاری" style="ellipse;whiteSpace=wrap;html=1;align=center;fillColor=#FFCCE6;" vertex="1" parent="1">
          <mxGeometry x="-40" y="40" width="100" height="40" as="geometry" />
        </mxCell>
        <mxCell id="0gLTv36TYnF1vi7v7U-2-81" value="دستمزدم ماهیانه" style="ellipse;whiteSpace=wrap;html=1;align=center;fillColor=#FFCCE6;" vertex="1" parent="1">
          <mxGeometry x="190" y="60" width="100" height="40" as="geometry" />
        </mxCell>
        <mxCell id="0gLTv36TYnF1vi7v7U-2-82" value="" style="endArrow=none;html=1;rounded=0;exitX=1;exitY=0.5;exitDx=0;exitDy=0;entryX=0;entryY=0.5;entryDx=0;entryDy=0;fillColor=#FFCCE6;" edge="1" parent="1" source="0gLTv36TYnF1vi7v7U-2-79" target="0gLTv36TYnF1vi7v7U-2-76">
          <mxGeometry relative="1" as="geometry">
            <mxPoint x="340" y="250" as="sourcePoint" />
            <mxPoint x="500" y="250" as="targetPoint" />
          </mxGeometry>
        </mxCell>
        <mxCell id="0gLTv36TYnF1vi7v7U-2-83" value="" style="endArrow=none;html=1;rounded=0;exitX=1;exitY=1;exitDx=0;exitDy=0;entryX=0.25;entryY=0;entryDx=0;entryDy=0;fillColor=#FFCCE6;" edge="1" parent="1" source="0gLTv36TYnF1vi7v7U-2-80" target="0gLTv36TYnF1vi7v7U-2-76">
          <mxGeometry relative="1" as="geometry">
            <mxPoint x="340" y="250" as="sourcePoint" />
            <mxPoint x="500" y="250" as="targetPoint" />
          </mxGeometry>
        </mxCell>
        <mxCell id="0gLTv36TYnF1vi7v7U-2-84" value="" style="endArrow=none;html=1;rounded=0;exitX=0.5;exitY=1;exitDx=0;exitDy=0;entryX=0.5;entryY=0;entryDx=0;entryDy=0;fillColor=#FFCCE6;" edge="1" parent="1" source="0gLTv36TYnF1vi7v7U-2-78" target="0gLTv36TYnF1vi7v7U-2-76">
          <mxGeometry relative="1" as="geometry">
            <mxPoint x="340" y="250" as="sourcePoint" />
            <mxPoint x="500" y="250" as="targetPoint" />
          </mxGeometry>
        </mxCell>
        <mxCell id="0gLTv36TYnF1vi7v7U-2-85" value="" style="endArrow=none;html=1;rounded=0;exitX=0;exitY=1;exitDx=0;exitDy=0;fillColor=#FFCCE6;" edge="1" parent="1" source="0gLTv36TYnF1vi7v7U-2-77" target="0gLTv36TYnF1vi7v7U-2-76">
          <mxGeometry relative="1" as="geometry">
            <mxPoint x="340" y="250" as="sourcePoint" />
            <mxPoint x="500" y="250" as="targetPoint" />
          </mxGeometry>
        </mxCell>
        <mxCell id="0gLTv36TYnF1vi7v7U-2-86" value="" style="endArrow=none;html=1;rounded=0;exitX=0.5;exitY=1;exitDx=0;exitDy=0;entryX=1;entryY=0.25;entryDx=0;entryDy=0;fillColor=#FFCCE6;" edge="1" parent="1" source="0gLTv36TYnF1vi7v7U-2-81" target="0gLTv36TYnF1vi7v7U-2-76">
          <mxGeometry relative="1" as="geometry">
            <mxPoint x="340" y="250" as="sourcePoint" />
            <mxPoint x="500" y="250" as="targetPoint" />
          </mxGeometry>
        </mxCell>
        <mxCell id="0gLTv36TYnF1vi7v7U-2-87" value="دارد" style="shape=rhombus;perimeter=rhombusPerimeter;whiteSpace=wrap;html=1;align=center;fillColor=#FFCCE6;" vertex="1" parent="1">
          <mxGeometry x="60" y="220" width="120" height="60" as="geometry" />
        </mxCell>
        <mxCell id="0gLTv36TYnF1vi7v7U-2-88" value="" style="endArrow=none;html=1;rounded=0;exitX=1;exitY=0.5;exitDx=0;exitDy=0;fillColor=#FFCCE6;" edge="1" parent="1" source="0gLTv36TYnF1vi7v7U-2-87">
          <mxGeometry relative="1" as="geometry">
            <mxPoint x="340" y="250" as="sourcePoint" />
            <mxPoint x="360" y="250" as="targetPoint" />
          </mxGeometry>
        </mxCell>
        <mxCell id="0gLTv36TYnF1vi7v7U-2-89" value="" style="endArrow=none;html=1;rounded=0;entryX=0.5;entryY=1;entryDx=0;entryDy=0;fillColor=#FFCCE6;" edge="1" parent="1" source="0gLTv36TYnF1vi7v7U-2-87" target="0gLTv36TYnF1vi7v7U-2-76">
          <mxGeometry relative="1" as="geometry">
            <mxPoint x="340" y="250" as="sourcePoint" />
            <mxPoint x="500" y="250" as="targetPoint" />
          </mxGeometry>
        </mxCell>
        <mxCell id="0gLTv36TYnF1vi7v7U-2-90" value="بازرسی شدن" style="rounded=1;arcSize=10;whiteSpace=wrap;html=1;align=center;fillColor=#FFCCE6;" vertex="1" parent="1">
          <mxGeometry x="360" y="-150" width="100" height="40" as="geometry" />
        </mxCell>
        <mxCell id="0gLTv36TYnF1vi7v7U-2-91" value="ب ش" style="shape=rhombus;perimeter=rhombusPerimeter;whiteSpace=wrap;html=1;align=center;fillColor=#FFCCE6;" vertex="1" parent="1">
          <mxGeometry x="350" y="20" width="120" height="60" as="geometry" />
        </mxCell>
        <mxCell id="0gLTv36TYnF1vi7v7U-2-92" value="" style="endArrow=none;html=1;rounded=0;exitX=0.5;exitY=1;exitDx=0;exitDy=0;entryX=0.5;entryY=0;entryDx=0;entryDy=0;fillColor=#FFCCE6;" edge="1" parent="1" source="0gLTv36TYnF1vi7v7U-2-90" target="0gLTv36TYnF1vi7v7U-2-91">
          <mxGeometry relative="1" as="geometry">
            <mxPoint x="420" y="140" as="sourcePoint" />
            <mxPoint x="580" y="140" as="targetPoint" />
          </mxGeometry>
        </mxCell>
        <mxCell id="0gLTv36TYnF1vi7v7U-2-93" value="" style="endArrow=none;html=1;rounded=0;exitX=0.5;exitY=1;exitDx=0;exitDy=0;entryX=0.5;entryY=0;entryDx=0;entryDy=0;fillColor=#FFCCE6;" edge="1" parent="1" source="0gLTv36TYnF1vi7v7U-2-118" target="0gLTv36TYnF1vi7v7U-2-1">
          <mxGeometry relative="1" as="geometry">
            <mxPoint x="420" y="140" as="sourcePoint" />
            <mxPoint x="580" y="140" as="targetPoint" />
          </mxGeometry>
        </mxCell>
        <mxCell id="0gLTv36TYnF1vi7v7U-2-94" value="&lt;u&gt;تاریخ&amp;nbsp;&lt;/u&gt;" style="ellipse;whiteSpace=wrap;html=1;align=center;fillColor=#FFCCE6;" vertex="1" parent="1">
          <mxGeometry x="220" y="-150" width="100" height="40" as="geometry" />
        </mxCell>
        <mxCell id="0gLTv36TYnF1vi7v7U-2-96" value="نمره بهداشت" style="ellipse;whiteSpace=wrap;html=1;align=center;fillColor=#FFCCE6;" vertex="1" parent="1">
          <mxGeometry x="300" y="-230" width="100" height="40" as="geometry" />
        </mxCell>
        <mxCell id="0gLTv36TYnF1vi7v7U-2-97" value="قیمت گذاری" style="ellipse;whiteSpace=wrap;html=1;align=center;fillColor=#FFCCE6;" vertex="1" parent="1">
          <mxGeometry x="460" y="-230" width="100" height="40" as="geometry" />
        </mxCell>
        <mxCell id="0gLTv36TYnF1vi7v7U-2-98" value="برخورد با مشتری" style="ellipse;whiteSpace=wrap;html=1;align=center;fillColor=#FFCCE6;" vertex="1" parent="1">
          <mxGeometry x="540" y="-150" width="100" height="40" as="geometry" />
        </mxCell>
        <mxCell id="0gLTv36TYnF1vi7v7U-2-99" value="" style="endArrow=none;html=1;rounded=0;exitX=1;exitY=0.5;exitDx=0;exitDy=0;entryX=0;entryY=0.5;entryDx=0;entryDy=0;fillColor=#FFCCE6;" edge="1" parent="1" source="0gLTv36TYnF1vi7v7U-2-94" target="0gLTv36TYnF1vi7v7U-2-90">
          <mxGeometry relative="1" as="geometry">
            <mxPoint x="420" y="140" as="sourcePoint" />
            <mxPoint x="580" y="140" as="targetPoint" />
          </mxGeometry>
        </mxCell>
        <mxCell id="0gLTv36TYnF1vi7v7U-2-100" value="" style="endArrow=none;html=1;rounded=0;exitX=0.646;exitY=1.018;exitDx=0;exitDy=0;exitPerimeter=0;entryX=0.25;entryY=0;entryDx=0;entryDy=0;fillColor=#FFCCE6;" edge="1" parent="1" source="0gLTv36TYnF1vi7v7U-2-96" target="0gLTv36TYnF1vi7v7U-2-90">
          <mxGeometry relative="1" as="geometry">
            <mxPoint x="420" y="140" as="sourcePoint" />
            <mxPoint x="580" y="140" as="targetPoint" />
          </mxGeometry>
        </mxCell>
        <mxCell id="0gLTv36TYnF1vi7v7U-2-101" value="" style="endArrow=none;html=1;rounded=0;exitX=0;exitY=1;exitDx=0;exitDy=0;fillColor=#FFCCE6;" edge="1" parent="1" source="0gLTv36TYnF1vi7v7U-2-97" target="0gLTv36TYnF1vi7v7U-2-90">
          <mxGeometry relative="1" as="geometry">
            <mxPoint x="420" y="140" as="sourcePoint" />
            <mxPoint x="580" y="140" as="targetPoint" />
          </mxGeometry>
        </mxCell>
        <mxCell id="0gLTv36TYnF1vi7v7U-2-102" value="" style="endArrow=none;html=1;rounded=0;entryX=1;entryY=0.75;entryDx=0;entryDy=0;fillColor=#FFCCE6;" edge="1" parent="1" source="0gLTv36TYnF1vi7v7U-2-98" target="0gLTv36TYnF1vi7v7U-2-90">
          <mxGeometry relative="1" as="geometry">
            <mxPoint x="420" y="140" as="sourcePoint" />
            <mxPoint x="580" y="140" as="targetPoint" />
          </mxGeometry>
        </mxCell>
        <mxCell id="0gLTv36TYnF1vi7v7U-2-103" value="شماره" style="ellipse;whiteSpace=wrap;html=1;align=center;fontStyle=4;fillColor=#FFCCE6;" vertex="1" parent="1">
          <mxGeometry x="980" y="320" width="100" height="40" as="geometry" />
        </mxCell>
        <mxCell id="0gLTv36TYnF1vi7v7U-2-104" value="تاریخ مراجعه" style="ellipse;whiteSpace=wrap;html=1;align=center;fontStyle=4;fillColor=#FFCCE6;" vertex="1" parent="1">
          <mxGeometry x="1080" y="320" width="100" height="40" as="geometry" />
        </mxCell>
        <mxCell id="0gLTv36TYnF1vi7v7U-2-105" value="" style="endArrow=none;html=1;rounded=0;entryX=1;entryY=0.5;entryDx=0;entryDy=0;fillColor=#FFCCE6;" edge="1" parent="1" target="0gLTv36TYnF1vi7v7U-2-40">
          <mxGeometry relative="1" as="geometry">
            <mxPoint x="1190" y="360" as="sourcePoint" />
            <mxPoint x="580" y="300" as="targetPoint" />
          </mxGeometry>
        </mxCell>
        <mxCell id="0gLTv36TYnF1vi7v7U-2-107" value="نام" style="ellipse;whiteSpace=wrap;html=1;align=center;fontStyle=4;fillColor=#FFCCE6;" vertex="1" parent="1">
          <mxGeometry x="750" y="480" width="100" height="40" as="geometry" />
        </mxCell>
        <mxCell id="0gLTv36TYnF1vi7v7U-2-108" value="قیمت" style="ellipse;whiteSpace=wrap;html=1;align=center;fillColor=#FFCCE6;" vertex="1" parent="1">
          <mxGeometry x="750" y="550" width="100" height="40" as="geometry" />
        </mxCell>
        <mxCell id="0gLTv36TYnF1vi7v7U-2-109" value="دسته" style="ellipse;whiteSpace=wrap;html=1;align=center;fillColor=#FFCCE6;" vertex="1" parent="1">
          <mxGeometry x="600" y="550" width="100" height="40" as="geometry" />
        </mxCell>
        <mxCell id="0gLTv36TYnF1vi7v7U-2-110" value="" style="endArrow=none;html=1;rounded=0;exitX=0.75;exitY=1;exitDx=0;exitDy=0;fillColor=#FFCCE6;" edge="1" parent="1" source="0gLTv36TYnF1vi7v7U-2-14" target="0gLTv36TYnF1vi7v7U-2-109">
          <mxGeometry relative="1" as="geometry">
            <mxPoint x="500" y="470" as="sourcePoint" />
            <mxPoint x="660" y="470" as="targetPoint" />
          </mxGeometry>
        </mxCell>
        <mxCell id="0gLTv36TYnF1vi7v7U-2-111" value="" style="endArrow=none;html=1;rounded=0;exitX=0.5;exitY=0;exitDx=0;exitDy=0;entryX=1;entryY=1;entryDx=0;entryDy=0;fillColor=#FFCCE6;" edge="1" parent="1" source="0gLTv36TYnF1vi7v7U-2-108" target="0gLTv36TYnF1vi7v7U-2-14">
          <mxGeometry relative="1" as="geometry">
            <mxPoint x="500" y="470" as="sourcePoint" />
            <mxPoint x="660" y="470" as="targetPoint" />
          </mxGeometry>
        </mxCell>
        <mxCell id="0gLTv36TYnF1vi7v7U-2-112" value="" style="endArrow=none;html=1;rounded=0;entryX=0.009;entryY=0.309;entryDx=0;entryDy=0;entryPerimeter=0;exitX=1;exitY=0.5;exitDx=0;exitDy=0;fillColor=#FFCCE6;" edge="1" parent="1" source="0gLTv36TYnF1vi7v7U-2-14" target="0gLTv36TYnF1vi7v7U-2-107">
          <mxGeometry relative="1" as="geometry">
            <mxPoint x="500" y="470" as="sourcePoint" />
            <mxPoint x="660" y="470" as="targetPoint" />
          </mxGeometry>
        </mxCell>
        <mxCell id="0gLTv36TYnF1vi7v7U-2-113" value="نام" style="ellipse;whiteSpace=wrap;html=1;align=center;fontStyle=4;fillColor=#FFCCE6;" vertex="1" parent="1">
          <mxGeometry x="-120" y="340" width="100" height="40" as="geometry" />
        </mxCell>
        <mxCell id="0gLTv36TYnF1vi7v7U-2-114" value="" style="endArrow=none;html=1;rounded=0;exitX=1;exitY=0.5;exitDx=0;exitDy=0;entryX=0;entryY=0.5;entryDx=0;entryDy=0;fillColor=#FFCCE6;" edge="1" parent="1" source="0gLTv36TYnF1vi7v7U-2-113" target="0gLTv36TYnF1vi7v7U-2-49">
          <mxGeometry relative="1" as="geometry">
            <mxPoint x="270" y="470" as="sourcePoint" />
            <mxPoint x="430" y="470" as="targetPoint" />
          </mxGeometry>
        </mxCell>
        <mxCell id="0gLTv36TYnF1vi7v7U-2-115" value="۱" style="text;strokeColor=none;align=center;fillColor=none;html=1;verticalAlign=middle;whiteSpace=wrap;rounded=0;" vertex="1" parent="1">
          <mxGeometry x="370" y="-110" width="60" height="30" as="geometry" />
        </mxCell>
        <mxCell id="0gLTv36TYnF1vi7v7U-2-116" value="نام مامور" style="ellipse;whiteSpace=wrap;html=1;align=center;fillColor=#FFCCE6;" vertex="1" parent="1">
          <mxGeometry x="570" y="-210" width="100" height="40" as="geometry" />
        </mxCell>
        <mxCell id="0gLTv36TYnF1vi7v7U-2-117" value="" style="endArrow=none;html=1;rounded=0;exitX=1;exitY=0;exitDx=0;exitDy=0;entryX=0;entryY=1;entryDx=0;entryDy=0;" edge="1" parent="1" source="0gLTv36TYnF1vi7v7U-2-90" target="0gLTv36TYnF1vi7v7U-2-116">
          <mxGeometry relative="1" as="geometry">
            <mxPoint x="430" y="90" as="sourcePoint" />
            <mxPoint x="590" y="90" as="targetPoint" />
          </mxGeometry>
        </mxCell>
        <mxCell id="0gLTv36TYnF1vi7v7U-2-119" value="" style="endArrow=none;html=1;rounded=0;exitX=0.5;exitY=1;exitDx=0;exitDy=0;entryX=0.5;entryY=0;entryDx=0;entryDy=0;fillColor=#FFCCE6;" edge="1" parent="1" source="0gLTv36TYnF1vi7v7U-2-91" target="0gLTv36TYnF1vi7v7U-2-118">
          <mxGeometry relative="1" as="geometry">
            <mxPoint x="410" y="80" as="sourcePoint" />
            <mxPoint x="410" y="240" as="targetPoint" />
          </mxGeometry>
        </mxCell>
        <mxCell id="0gLTv36TYnF1vi7v7U-2-118" value="۱" style="text;strokeColor=none;align=center;fillColor=none;html=1;verticalAlign=middle;whiteSpace=wrap;rounded=0;" vertex="1" parent="1">
          <mxGeometry x="380" y="215" width="60" height="30" as="geometry" />
        </mxCell>
        <mxCell id="0gLTv36TYnF1vi7v7U-2-120" value="۱" style="text;strokeColor=none;align=center;fillColor=none;html=1;verticalAlign=middle;whiteSpace=wrap;rounded=0;" vertex="1" parent="1">
          <mxGeometry x="580" y="140" width="60" height="30" as="geometry" />
        </mxCell>
        <mxCell id="0gLTv36TYnF1vi7v7U-2-121" value="۱" style="text;strokeColor=none;align=center;fillColor=none;html=1;verticalAlign=middle;whiteSpace=wrap;rounded=0;" vertex="1" parent="1">
          <mxGeometry x="440" y="215" width="60" height="30" as="geometry" />
        </mxCell>
        <mxCell id="0gLTv36TYnF1vi7v7U-2-122" value="N" style="text;strokeColor=none;align=center;fillColor=none;html=1;verticalAlign=middle;whiteSpace=wrap;rounded=0;" vertex="1" parent="1">
          <mxGeometry x="860" y="315" width="60" height="30" as="geometry" />
        </mxCell>
        <mxCell id="0gLTv36TYnF1vi7v7U-2-123" value="1" style="text;strokeColor=none;align=center;fillColor=none;html=1;verticalAlign=middle;whiteSpace=wrap;rounded=0;" vertex="1" parent="1">
          <mxGeometry x="520" y="240" width="60" height="30" as="geometry" />
        </mxCell>
        <mxCell id="0gLTv36TYnF1vi7v7U-2-129" value="۱" style="text;strokeColor=none;align=center;fillColor=none;html=1;verticalAlign=middle;whiteSpace=wrap;rounded=0;" vertex="1" parent="1">
          <mxGeometry x="450" y="260" width="60" height="30" as="geometry" />
        </mxCell>
        <mxCell id="0gLTv36TYnF1vi7v7U-2-130" value="N" style="text;strokeColor=none;align=center;fillColor=none;html=1;verticalAlign=middle;whiteSpace=wrap;rounded=0;" vertex="1" parent="1">
          <mxGeometry x="800" y="330" width="60" height="30" as="geometry" />
        </mxCell>
        <mxCell id="0gLTv36TYnF1vi7v7U-2-131" value="M" style="text;strokeColor=none;align=center;fillColor=none;html=1;verticalAlign=middle;whiteSpace=wrap;rounded=0;" vertex="1" parent="1">
          <mxGeometry x="660" y="340" width="60" height="30" as="geometry" />
        </mxCell>
        <mxCell id="0gLTv36TYnF1vi7v7U-2-132" value="M" style="text;strokeColor=none;align=center;fillColor=none;html=1;verticalAlign=middle;whiteSpace=wrap;rounded=0;" vertex="1" parent="1">
          <mxGeometry x="590" y="455" width="60" height="30" as="geometry" />
        </mxCell>
        <mxCell id="0gLTv36TYnF1vi7v7U-2-133" value="N" style="text;strokeColor=none;align=center;fillColor=none;html=1;verticalAlign=middle;whiteSpace=wrap;rounded=0;" vertex="1" parent="1">
          <mxGeometry x="590" y="380" width="60" height="30" as="geometry" />
        </mxCell>
        <mxCell id="0gLTv36TYnF1vi7v7U-2-134" value="N" style="text;strokeColor=none;align=center;fillColor=none;html=1;verticalAlign=middle;whiteSpace=wrap;rounded=0;" vertex="1" parent="1">
          <mxGeometry x="140" y="340" width="60" height="30" as="geometry" />
        </mxCell>
        <mxCell id="0gLTv36TYnF1vi7v7U-2-135" value="۱" style="text;strokeColor=none;align=center;fillColor=none;html=1;verticalAlign=middle;whiteSpace=wrap;rounded=0;" vertex="1" parent="1">
          <mxGeometry x="350" y="280" width="60" height="30" as="geometry" />
        </mxCell>
        <mxCell id="0gLTv36TYnF1vi7v7U-2-136" value="M" style="text;strokeColor=none;align=center;fillColor=none;html=1;verticalAlign=middle;whiteSpace=wrap;rounded=0;" vertex="1" parent="1">
          <mxGeometry x="540" y="350" width="60" height="30" as="geometry" />
        </mxCell>
        <mxCell id="0gLTv36TYnF1vi7v7U-2-137" value="N" style="text;strokeColor=none;align=center;fillColor=none;html=1;verticalAlign=middle;whiteSpace=wrap;rounded=0;" vertex="1" parent="1">
          <mxGeometry x="540" y="485" width="60" height="30" as="geometry" />
        </mxCell>
        <mxCell id="0gLTv36TYnF1vi7v7U-2-138" value="M" style="text;strokeColor=none;align=center;fillColor=none;html=1;verticalAlign=middle;whiteSpace=wrap;rounded=0;" vertex="1" parent="1">
          <mxGeometry x="390" y="270" width="60" height="30" as="geometry" />
        </mxCell>
        <mxCell id="0gLTv36TYnF1vi7v7U-2-139" value="N" style="text;strokeColor=none;align=center;fillColor=none;html=1;verticalAlign=middle;whiteSpace=wrap;rounded=0;" vertex="1" parent="1">
          <mxGeometry x="100" y="150" width="60" height="30" as="geometry" />
        </mxCell>
        <mxCell id="0gLTv36TYnF1vi7v7U-2-140" value="۱" style="text;strokeColor=none;align=center;fillColor=none;html=1;verticalAlign=middle;whiteSpace=wrap;rounded=0;" vertex="1" parent="1">
          <mxGeometry x="320" y="245" width="60" height="30" as="geometry" />
        </mxCell>
      </root>
    </mxGraphModel>
  </diagram>
</mxfile>
